<mxfile host="Electron" modified="2023-12-14T15:10:33.231Z" agent="Mozilla/5.0 (Windows NT 10.0; Win64; x64) AppleWebKit/537.36 (KHTML, like Gecko) draw.io/22.0.2 Chrome/114.0.5735.289 Electron/25.8.4 Safari/537.36" etag="O_50fwV-FjY19uo2sWVy" version="22.0.2" type="device">
  <diagram name="PÃ¡gina-1" id="DIpsoCifLBNVHQsnfT2D">
    <mxGraphModel dx="938" dy="648" grid="1" gridSize="10" guides="1" tooltips="1" connect="1" arrows="1" fold="1" page="1" pageScale="1" pageWidth="827" pageHeight="1169" math="0" shadow="0">
      <root>
        <mxCell id="0" />
        <mxCell id="1" parent="0" />
        <mxCell id="-EgpD6xT2y2mKmVSxyer-10" style="edgeStyle=none;shape=connector;rounded=0;orthogonalLoop=1;jettySize=auto;html=1;exitX=0.5;exitY=0.5;exitDx=0;exitDy=0;exitPerimeter=0;entryX=0;entryY=0.5;entryDx=0;entryDy=0;labelBackgroundColor=default;strokeColor=default;align=center;verticalAlign=middle;fontFamily=Helvetica;fontSize=11;fontColor=default;endArrow=classic;" edge="1" parent="1" source="-EgpD6xT2y2mKmVSxyer-1" target="-EgpD6xT2y2mKmVSxyer-4">
          <mxGeometry relative="1" as="geometry" />
        </mxCell>
        <mxCell id="-EgpD6xT2y2mKmVSxyer-12" style="edgeStyle=none;shape=connector;rounded=0;orthogonalLoop=1;jettySize=auto;html=1;exitX=0.5;exitY=0.5;exitDx=0;exitDy=0;exitPerimeter=0;entryX=0;entryY=0.5;entryDx=0;entryDy=0;labelBackgroundColor=default;strokeColor=default;align=center;verticalAlign=middle;fontFamily=Helvetica;fontSize=11;fontColor=default;endArrow=classic;" edge="1" parent="1" source="-EgpD6xT2y2mKmVSxyer-1" target="-EgpD6xT2y2mKmVSxyer-11">
          <mxGeometry relative="1" as="geometry" />
        </mxCell>
        <mxCell id="-EgpD6xT2y2mKmVSxyer-14" style="edgeStyle=none;shape=connector;rounded=0;orthogonalLoop=1;jettySize=auto;html=1;exitX=0.5;exitY=0.5;exitDx=0;exitDy=0;exitPerimeter=0;entryX=0;entryY=0.5;entryDx=0;entryDy=0;labelBackgroundColor=default;strokeColor=default;align=center;verticalAlign=middle;fontFamily=Helvetica;fontSize=11;fontColor=default;endArrow=classic;" edge="1" parent="1" source="-EgpD6xT2y2mKmVSxyer-1" target="-EgpD6xT2y2mKmVSxyer-13">
          <mxGeometry relative="1" as="geometry" />
        </mxCell>
        <mxCell id="-EgpD6xT2y2mKmVSxyer-21" style="edgeStyle=none;shape=connector;rounded=0;orthogonalLoop=1;jettySize=auto;html=1;exitX=0.5;exitY=0.5;exitDx=0;exitDy=0;exitPerimeter=0;entryX=0;entryY=0.5;entryDx=0;entryDy=0;labelBackgroundColor=default;strokeColor=default;align=center;verticalAlign=middle;fontFamily=Helvetica;fontSize=11;fontColor=default;endArrow=classic;" edge="1" parent="1" source="-EgpD6xT2y2mKmVSxyer-1" target="-EgpD6xT2y2mKmVSxyer-20">
          <mxGeometry relative="1" as="geometry" />
        </mxCell>
        <mxCell id="-EgpD6xT2y2mKmVSxyer-27" style="edgeStyle=none;shape=connector;rounded=0;orthogonalLoop=1;jettySize=auto;html=1;exitX=0.5;exitY=0.5;exitDx=0;exitDy=0;exitPerimeter=0;entryX=0;entryY=0.5;entryDx=0;entryDy=0;labelBackgroundColor=default;strokeColor=default;align=center;verticalAlign=middle;fontFamily=Helvetica;fontSize=11;fontColor=default;endArrow=classic;" edge="1" parent="1" source="-EgpD6xT2y2mKmVSxyer-1" target="-EgpD6xT2y2mKmVSxyer-26">
          <mxGeometry relative="1" as="geometry" />
        </mxCell>
        <mxCell id="-EgpD6xT2y2mKmVSxyer-1" value="Usuario" style="shape=umlActor;verticalLabelPosition=bottom;verticalAlign=top;html=1;outlineConnect=0;" vertex="1" parent="1">
          <mxGeometry x="130" y="250" width="30" height="60" as="geometry" />
        </mxCell>
        <mxCell id="-EgpD6xT2y2mKmVSxyer-9" style="edgeStyle=none;shape=connector;rounded=0;orthogonalLoop=1;jettySize=auto;html=1;exitX=0.5;exitY=0.5;exitDx=0;exitDy=0;exitPerimeter=0;entryX=1;entryY=0.5;entryDx=0;entryDy=0;labelBackgroundColor=default;strokeColor=default;align=center;verticalAlign=middle;fontFamily=Helvetica;fontSize=11;fontColor=default;endArrow=classic;" edge="1" parent="1" source="-EgpD6xT2y2mKmVSxyer-2" target="-EgpD6xT2y2mKmVSxyer-6">
          <mxGeometry relative="1" as="geometry" />
        </mxCell>
        <mxCell id="-EgpD6xT2y2mKmVSxyer-17" style="edgeStyle=none;shape=connector;rounded=0;orthogonalLoop=1;jettySize=auto;html=1;exitX=0.5;exitY=0.5;exitDx=0;exitDy=0;exitPerimeter=0;entryX=1;entryY=0.5;entryDx=0;entryDy=0;labelBackgroundColor=default;strokeColor=default;align=center;verticalAlign=middle;fontFamily=Helvetica;fontSize=11;fontColor=default;endArrow=classic;" edge="1" parent="1" source="-EgpD6xT2y2mKmVSxyer-2" target="-EgpD6xT2y2mKmVSxyer-16">
          <mxGeometry relative="1" as="geometry" />
        </mxCell>
        <mxCell id="-EgpD6xT2y2mKmVSxyer-23" style="edgeStyle=none;shape=connector;rounded=0;orthogonalLoop=1;jettySize=auto;html=1;exitX=0.5;exitY=0.5;exitDx=0;exitDy=0;exitPerimeter=0;entryX=1;entryY=0.5;entryDx=0;entryDy=0;labelBackgroundColor=default;strokeColor=default;align=center;verticalAlign=middle;fontFamily=Helvetica;fontSize=11;fontColor=default;endArrow=classic;" edge="1" parent="1" source="-EgpD6xT2y2mKmVSxyer-2" target="-EgpD6xT2y2mKmVSxyer-22">
          <mxGeometry relative="1" as="geometry" />
        </mxCell>
        <mxCell id="-EgpD6xT2y2mKmVSxyer-29" style="edgeStyle=none;shape=connector;rounded=0;orthogonalLoop=1;jettySize=auto;html=1;exitX=0.5;exitY=0.5;exitDx=0;exitDy=0;exitPerimeter=0;entryX=1;entryY=0.5;entryDx=0;entryDy=0;labelBackgroundColor=default;strokeColor=default;align=center;verticalAlign=middle;fontFamily=Helvetica;fontSize=11;fontColor=default;endArrow=classic;" edge="1" parent="1" source="-EgpD6xT2y2mKmVSxyer-2" target="-EgpD6xT2y2mKmVSxyer-28">
          <mxGeometry relative="1" as="geometry" />
        </mxCell>
        <mxCell id="-EgpD6xT2y2mKmVSxyer-31" style="edgeStyle=none;shape=connector;rounded=0;orthogonalLoop=1;jettySize=auto;html=1;exitX=0.5;exitY=0.5;exitDx=0;exitDy=0;exitPerimeter=0;entryX=1;entryY=0.5;entryDx=0;entryDy=0;labelBackgroundColor=default;strokeColor=default;align=center;verticalAlign=middle;fontFamily=Helvetica;fontSize=11;fontColor=default;endArrow=classic;" edge="1" parent="1" source="-EgpD6xT2y2mKmVSxyer-2" target="-EgpD6xT2y2mKmVSxyer-30">
          <mxGeometry relative="1" as="geometry" />
        </mxCell>
        <mxCell id="-EgpD6xT2y2mKmVSxyer-45" style="edgeStyle=none;shape=connector;rounded=0;orthogonalLoop=1;jettySize=auto;html=1;exitX=0.5;exitY=0.5;exitDx=0;exitDy=0;exitPerimeter=0;entryX=1;entryY=0.5;entryDx=0;entryDy=0;labelBackgroundColor=default;strokeColor=default;align=center;verticalAlign=middle;fontFamily=Helvetica;fontSize=11;fontColor=default;endArrow=classic;" edge="1" parent="1" source="-EgpD6xT2y2mKmVSxyer-2" target="-EgpD6xT2y2mKmVSxyer-44">
          <mxGeometry relative="1" as="geometry" />
        </mxCell>
        <mxCell id="-EgpD6xT2y2mKmVSxyer-2" value="Sistema" style="shape=umlActor;verticalLabelPosition=bottom;verticalAlign=top;html=1;outlineConnect=0;" vertex="1" parent="1">
          <mxGeometry x="630" y="260" width="30" height="60" as="geometry" />
        </mxCell>
        <mxCell id="-EgpD6xT2y2mKmVSxyer-38" style="edgeStyle=none;shape=connector;rounded=0;orthogonalLoop=1;jettySize=auto;html=1;exitX=0.5;exitY=0.5;exitDx=0;exitDy=0;exitPerimeter=0;entryX=0;entryY=0.5;entryDx=0;entryDy=0;labelBackgroundColor=default;strokeColor=default;align=center;verticalAlign=middle;fontFamily=Helvetica;fontSize=11;fontColor=default;endArrow=classic;" edge="1" parent="1" source="-EgpD6xT2y2mKmVSxyer-3" target="-EgpD6xT2y2mKmVSxyer-35">
          <mxGeometry relative="1" as="geometry" />
        </mxCell>
        <mxCell id="-EgpD6xT2y2mKmVSxyer-39" style="edgeStyle=none;shape=connector;rounded=0;orthogonalLoop=1;jettySize=auto;html=1;exitX=0.5;exitY=0.5;exitDx=0;exitDy=0;exitPerimeter=0;entryX=0;entryY=0.5;entryDx=0;entryDy=0;labelBackgroundColor=default;strokeColor=default;align=center;verticalAlign=middle;fontFamily=Helvetica;fontSize=11;fontColor=default;endArrow=classic;" edge="1" parent="1" source="-EgpD6xT2y2mKmVSxyer-3" target="-EgpD6xT2y2mKmVSxyer-33">
          <mxGeometry relative="1" as="geometry" />
        </mxCell>
        <mxCell id="-EgpD6xT2y2mKmVSxyer-40" style="edgeStyle=none;shape=connector;rounded=0;orthogonalLoop=1;jettySize=auto;html=1;exitX=0.5;exitY=0.5;exitDx=0;exitDy=0;exitPerimeter=0;entryX=0;entryY=0.5;entryDx=0;entryDy=0;labelBackgroundColor=default;strokeColor=default;align=center;verticalAlign=middle;fontFamily=Helvetica;fontSize=11;fontColor=default;endArrow=classic;" edge="1" parent="1" source="-EgpD6xT2y2mKmVSxyer-3" target="-EgpD6xT2y2mKmVSxyer-34">
          <mxGeometry relative="1" as="geometry" />
        </mxCell>
        <mxCell id="-EgpD6xT2y2mKmVSxyer-41" style="edgeStyle=none;shape=connector;rounded=0;orthogonalLoop=1;jettySize=auto;html=1;exitX=0.5;exitY=0.5;exitDx=0;exitDy=0;exitPerimeter=0;entryX=0;entryY=0.5;entryDx=0;entryDy=0;labelBackgroundColor=default;strokeColor=default;align=center;verticalAlign=middle;fontFamily=Helvetica;fontSize=11;fontColor=default;endArrow=classic;" edge="1" parent="1" source="-EgpD6xT2y2mKmVSxyer-3" target="-EgpD6xT2y2mKmVSxyer-32">
          <mxGeometry relative="1" as="geometry" />
        </mxCell>
        <mxCell id="-EgpD6xT2y2mKmVSxyer-3" value="Bibliotecario" style="shape=umlActor;verticalLabelPosition=bottom;verticalAlign=top;html=1;outlineConnect=0;" vertex="1" parent="1">
          <mxGeometry x="130" y="525" width="30" height="60" as="geometry" />
        </mxCell>
        <mxCell id="-EgpD6xT2y2mKmVSxyer-4" value="se registra" style="ellipse;whiteSpace=wrap;html=1;" vertex="1" parent="1">
          <mxGeometry x="220" y="180" width="116" height="40" as="geometry" />
        </mxCell>
        <mxCell id="-EgpD6xT2y2mKmVSxyer-7" style="rounded=0;orthogonalLoop=1;jettySize=auto;html=1;exitX=0;exitY=0.5;exitDx=0;exitDy=0;entryX=1;entryY=0.5;entryDx=0;entryDy=0;dashed=1;" edge="1" parent="1" source="-EgpD6xT2y2mKmVSxyer-6" target="-EgpD6xT2y2mKmVSxyer-4">
          <mxGeometry relative="1" as="geometry" />
        </mxCell>
        <mxCell id="-EgpD6xT2y2mKmVSxyer-8" value="&amp;lt;&amp;lt;include&amp;gt;&amp;gt;" style="edgeLabel;html=1;align=center;verticalAlign=middle;resizable=0;points=[];fontSize=11;fontFamily=Helvetica;fontColor=default;" vertex="1" connectable="0" parent="-EgpD6xT2y2mKmVSxyer-7">
          <mxGeometry x="0.2885" y="1" relative="1" as="geometry">
            <mxPoint x="21" y="-1" as="offset" />
          </mxGeometry>
        </mxCell>
        <mxCell id="-EgpD6xT2y2mKmVSxyer-6" value="da nÃºmero" style="ellipse;whiteSpace=wrap;html=1;" vertex="1" parent="1">
          <mxGeometry x="430" y="180" width="116" height="40" as="geometry" />
        </mxCell>
        <mxCell id="-EgpD6xT2y2mKmVSxyer-11" value="Buscar libro" style="ellipse;whiteSpace=wrap;html=1;" vertex="1" parent="1">
          <mxGeometry x="220" y="230" width="116" height="40" as="geometry" />
        </mxCell>
        <mxCell id="-EgpD6xT2y2mKmVSxyer-13" value="pedir prestado" style="ellipse;whiteSpace=wrap;html=1;" vertex="1" parent="1">
          <mxGeometry x="220" y="380" width="116" height="40" as="geometry" />
        </mxCell>
        <mxCell id="-EgpD6xT2y2mKmVSxyer-18" style="edgeStyle=none;shape=connector;rounded=0;orthogonalLoop=1;jettySize=auto;html=1;exitX=0;exitY=0.5;exitDx=0;exitDy=0;dashed=1;labelBackgroundColor=default;strokeColor=default;align=center;verticalAlign=middle;fontFamily=Helvetica;fontSize=11;fontColor=default;endArrow=classic;" edge="1" parent="1" source="-EgpD6xT2y2mKmVSxyer-16" target="-EgpD6xT2y2mKmVSxyer-13">
          <mxGeometry relative="1" as="geometry" />
        </mxCell>
        <mxCell id="-EgpD6xT2y2mKmVSxyer-19" value="&amp;lt;&amp;lt;include&amp;gt;&amp;gt;" style="edgeLabel;html=1;align=center;verticalAlign=middle;resizable=0;points=[];fontSize=11;fontFamily=Helvetica;fontColor=default;" vertex="1" connectable="0" parent="-EgpD6xT2y2mKmVSxyer-18">
          <mxGeometry x="0.1731" relative="1" as="geometry">
            <mxPoint x="9" as="offset" />
          </mxGeometry>
        </mxCell>
        <mxCell id="-EgpD6xT2y2mKmVSxyer-16" value="cide fecha de devoluciÃ³n" style="ellipse;whiteSpace=wrap;html=1;" vertex="1" parent="1">
          <mxGeometry x="430" y="430" width="116" height="40" as="geometry" />
        </mxCell>
        <mxCell id="-EgpD6xT2y2mKmVSxyer-20" value="devuelve libro" style="ellipse;whiteSpace=wrap;html=1;" vertex="1" parent="1">
          <mxGeometry x="220" y="330" width="116" height="40" as="geometry" />
        </mxCell>
        <mxCell id="-EgpD6xT2y2mKmVSxyer-42" style="edgeStyle=none;shape=connector;rounded=0;orthogonalLoop=1;jettySize=auto;html=1;exitX=0;exitY=0.5;exitDx=0;exitDy=0;dashed=1;labelBackgroundColor=default;strokeColor=default;align=center;verticalAlign=middle;fontFamily=Helvetica;fontSize=11;fontColor=default;endArrow=classic;" edge="1" parent="1" source="-EgpD6xT2y2mKmVSxyer-22" target="-EgpD6xT2y2mKmVSxyer-20">
          <mxGeometry relative="1" as="geometry" />
        </mxCell>
        <mxCell id="-EgpD6xT2y2mKmVSxyer-43" value="&amp;lt;&amp;lt;include&amp;gt;&amp;gt;" style="edgeLabel;html=1;align=center;verticalAlign=middle;resizable=0;points=[];fontSize=11;fontFamily=Helvetica;fontColor=default;" vertex="1" connectable="0" parent="-EgpD6xT2y2mKmVSxyer-42">
          <mxGeometry x="0.2766" relative="1" as="geometry">
            <mxPoint x="10" as="offset" />
          </mxGeometry>
        </mxCell>
        <mxCell id="-EgpD6xT2y2mKmVSxyer-22" value="actualiza el estado de libros" style="ellipse;whiteSpace=wrap;html=1;" vertex="1" parent="1">
          <mxGeometry x="430" y="330" width="116" height="40" as="geometry" />
        </mxCell>
        <mxCell id="-EgpD6xT2y2mKmVSxyer-26" value="paga multa" style="ellipse;whiteSpace=wrap;html=1;" vertex="1" parent="1">
          <mxGeometry x="220" y="280" width="116" height="40" as="geometry" />
        </mxCell>
        <mxCell id="-EgpD6xT2y2mKmVSxyer-28" value="registra multa" style="ellipse;whiteSpace=wrap;html=1;" vertex="1" parent="1">
          <mxGeometry x="430" y="280" width="116" height="40" as="geometry" />
        </mxCell>
        <mxCell id="-EgpD6xT2y2mKmVSxyer-30" value="recomienda libro" style="ellipse;whiteSpace=wrap;html=1;" vertex="1" parent="1">
          <mxGeometry x="430" y="230" width="116" height="40" as="geometry" />
        </mxCell>
        <mxCell id="-EgpD6xT2y2mKmVSxyer-32" value="aÃ±adir libro" style="ellipse;whiteSpace=wrap;html=1;" vertex="1" parent="1">
          <mxGeometry x="220" y="630" width="116" height="40" as="geometry" />
        </mxCell>
        <mxCell id="-EgpD6xT2y2mKmVSxyer-33" value="eliminar libro" style="ellipse;whiteSpace=wrap;html=1;" vertex="1" parent="1">
          <mxGeometry x="220" y="530" width="116" height="40" as="geometry" />
        </mxCell>
        <mxCell id="-EgpD6xT2y2mKmVSxyer-34" value="modificar libro" style="ellipse;whiteSpace=wrap;html=1;" vertex="1" parent="1">
          <mxGeometry x="220" y="580" width="116" height="40" as="geometry" />
        </mxCell>
        <mxCell id="-EgpD6xT2y2mKmVSxyer-36" style="edgeStyle=none;shape=connector;rounded=0;orthogonalLoop=1;jettySize=auto;html=1;exitX=0.5;exitY=0;exitDx=0;exitDy=0;entryX=0.5;entryY=1;entryDx=0;entryDy=0;dashed=1;labelBackgroundColor=default;strokeColor=default;align=center;verticalAlign=middle;fontFamily=Helvetica;fontSize=11;fontColor=default;endArrow=classic;" edge="1" parent="1" source="-EgpD6xT2y2mKmVSxyer-35" target="-EgpD6xT2y2mKmVSxyer-13">
          <mxGeometry relative="1" as="geometry" />
        </mxCell>
        <mxCell id="-EgpD6xT2y2mKmVSxyer-37" value="&amp;lt;&amp;lt;extend&amp;gt;&amp;gt;" style="edgeLabel;html=1;align=center;verticalAlign=middle;resizable=0;points=[];fontSize=11;fontFamily=Helvetica;fontColor=default;" vertex="1" connectable="0" parent="-EgpD6xT2y2mKmVSxyer-36">
          <mxGeometry x="-0.0333" relative="1" as="geometry">
            <mxPoint as="offset" />
          </mxGeometry>
        </mxCell>
        <mxCell id="-EgpD6xT2y2mKmVSxyer-35" value="generar reporte sobre prÃ©stamos" style="ellipse;whiteSpace=wrap;html=1;" vertex="1" parent="1">
          <mxGeometry x="220" y="480" width="116" height="40" as="geometry" />
        </mxCell>
        <mxCell id="-EgpD6xT2y2mKmVSxyer-46" style="edgeStyle=none;shape=connector;rounded=0;orthogonalLoop=1;jettySize=auto;html=1;exitX=0;exitY=0.5;exitDx=0;exitDy=0;entryX=1;entryY=0.5;entryDx=0;entryDy=0;dashed=1;labelBackgroundColor=default;strokeColor=default;align=center;verticalAlign=middle;fontFamily=Helvetica;fontSize=11;fontColor=default;endArrow=classic;" edge="1" parent="1" source="-EgpD6xT2y2mKmVSxyer-44" target="-EgpD6xT2y2mKmVSxyer-13">
          <mxGeometry relative="1" as="geometry" />
        </mxCell>
        <mxCell id="-EgpD6xT2y2mKmVSxyer-47" value="&amp;lt;&amp;lt;include&amp;gt;&amp;gt;" style="edgeLabel;html=1;align=center;verticalAlign=middle;resizable=0;points=[];fontSize=11;fontFamily=Helvetica;fontColor=default;" vertex="1" connectable="0" parent="-EgpD6xT2y2mKmVSxyer-46">
          <mxGeometry x="0.1915" y="2" relative="1" as="geometry">
            <mxPoint x="16" y="-2" as="offset" />
          </mxGeometry>
        </mxCell>
        <mxCell id="-EgpD6xT2y2mKmVSxyer-44" value="registra prÃ©stamo" style="ellipse;whiteSpace=wrap;html=1;" vertex="1" parent="1">
          <mxGeometry x="430" y="380" width="116" height="40" as="geometry" />
        </mxCell>
      </root>
    </mxGraphModel>
  </diagram>
</mxfile>
